<?xml version="1.0" encoding="UTF-8" standalone="no"?>
<!-- Created with Inkscape (http://www.inkscape.org/) -->

<svg
   xmlns:dc="http://purl.org/dc/elements/1.1/"
   xmlns:cc="http://creativecommons.org/ns#"
   xmlns:rdf="http://www.w3.org/1999/02/22-rdf-syntax-ns#"
   xmlns:svg="http://www.w3.org/2000/svg"
   xmlns="http://www.w3.org/2000/svg"
   xmlns:xlink="http://www.w3.org/1999/xlink"
   xmlns:sodipodi="http://sodipodi.sourceforge.net/DTD/sodipodi-0.dtd"
   xmlns:inkscape="http://www.inkscape.org/namespaces/inkscape"
   width="100%"
   height="100%"
   viewBox="0 0 79.374998 79.375005"
   version="1.1"
   id="svg8"
   inkscape:version="0.92.5 (2060ec1f9f, 2020-04-08)"
   sodipodi:docname="solarenergy.svg">
  <metadata
     id="metadata149">
    <rdf:RDF>
      <cc:Work
         rdf:about="">
        <dc:format>image/svg+xml</dc:format>
        <dc:type
           rdf:resource="http://purl.org/dc/dcmitype/StillImage" />
        <dc:title></dc:title>
      </cc:Work>
    </rdf:RDF>
  </metadata>
  <sodipodi:namedview
     pagecolor="#4c4c61"
     bordercolor="#666666"
     borderopacity="1"
     objecttolerance="10"
     gridtolerance="10"
     guidetolerance="10"
     inkscape:pageopacity="0"
     inkscape:pageshadow="2"
     inkscape:window-width="1811"
     inkscape:window-height="998"
     id="namedview147"
     showgrid="false"
     inkscape:zoom="1.668772"
     inkscape:cx="-60.965069"
     inkscape:cy="152.77306"
     inkscape:window-x="0"
     inkscape:window-y="40"
     inkscape:window-maximized="0"
     inkscape:current-layer="layer1"
     inkscape:pagecheckerboard="false" />
  <defs
     id="defs2">
    <linearGradient
       inkscape:collect="always"
       id="linearGradient988">
      <stop
         style="stop-color:#000000;stop-opacity:1;"
         offset="0"
         id="stop984" />
      <stop
         style="stop-color:#000000;stop-opacity:0;"
         offset="1"
         id="stop986" />
    </linearGradient>
    <radialGradient
       id="SVGID_3_"
       cx="74.028603"
       cy="22.308901"
       gradientUnits="userSpaceOnUse"
       r="106.9168">
      <stop
         offset="0"
         style="stop-color:#FFD54F"
         id="stop53" />
      <stop
         offset="0.179"
         style="stop-color:#FFD34B"
         id="stop55" />
      <stop
         offset="0.3526"
         style="stop-color:#FFCE3F"
         id="stop57" />
      <stop
         offset="0.524"
         style="stop-color:#FFC62C"
         id="stop59" />
      <stop
         offset="0.693"
         style="stop-color:#FFBA11"
         id="stop61" />
      <stop
         offset="0.7785"
         style="stop-color:#FFB300"
         id="stop63" />
      <stop
         offset="1"
         style="stop-color:#FFB300"
         id="stop65" />
    </radialGradient>
    <radialGradient
       id="SVGID_4_"
       cx="58.516602"
       cy="65.103897"
       gradientUnits="userSpaceOnUse"
       r="43.726898">
      <stop
         offset="0"
         style="stop-color:#D32F2F"
         id="stop82" />
      <stop
         offset="0.4374"
         style="stop-color:#CA2929"
         id="stop84" />
      <stop
         offset="0.9957"
         style="stop-color:#B71C1C"
         id="stop86" />
    </radialGradient>
    <radialGradient
       id="SVGID_5_"
       cx="58.932999"
       cy="67.394203"
       gradientUnits="userSpaceOnUse"
       r="39.251801">
      <stop
         offset="0"
         style="stop-color:#EF5350"
         id="stop91" />
      <stop
         offset="1"
         style="stop-color:#E53935"
         id="stop93" />
    </radialGradient>
    <radialGradient
       id="SVGID_6_"
       cx="58.620701"
       cy="70.933899"
       gradientUnits="userSpaceOnUse"
       r="34.659401">
      <stop
         offset="0"
         style="stop-color:#E53935"
         id="stop104" />
      <stop
         offset="0.4072"
         style="stop-color:#DC3431"
         id="stop106" />
      <stop
         offset="1"
         style="stop-color:#C62828"
         id="stop108" />
    </radialGradient>
    <radialGradient
       id="SVGID_7_"
       cx="58.620701"
       cy="70.933899"
       gradientUnits="userSpaceOnUse"
       r="34.659401">
      <stop
         offset="0"
         style="stop-color:#E53935"
         id="stop113" />
      <stop
         offset="0.4072"
         style="stop-color:#DC3431"
         id="stop115" />
      <stop
         offset="1"
         style="stop-color:#C62828"
         id="stop117" />
    </radialGradient>
    <linearGradient
       id="SVGID_8_"
       gradientUnits="userSpaceOnUse"
       x1="59.056702"
       x2="59.056702"
       y1="106.6811"
       y2="112.1198">
      <stop
         offset="4.291845e-03"
         style="stop-color:#BDBDBD"
         id="stop124" />
      <stop
         offset="0.2153"
         style="stop-color:#B5B5B5"
         id="stop126" />
      <stop
         offset="0.5502"
         style="stop-color:#9E9E9E"
         id="stop128" />
      <stop
         offset="0.9652"
         style="stop-color:#787878"
         id="stop130" />
      <stop
         offset="1"
         style="stop-color:#757575"
         id="stop132" />
    </linearGradient>
    <radialGradient
       id="SVGID_11_"
       cx="73.612099"
       cy="18.4639"
       gradientUnits="userSpaceOnUse"
       r="56.333599">
      <stop
         offset="0"
         style="stop-color:#F44336"
         id="stop207" />
      <stop
         offset="0.34"
         style="stop-color:#EE3F35"
         id="stop209" />
      <stop
         offset="0.8027"
         style="stop-color:#DC3531"
         id="stop211" />
      <stop
         offset="0.9957"
         style="stop-color:#D32F2F"
         id="stop213" />
    </radialGradient>
    <path
       id="SVGID_9_"
       d="m 102.35,68.64 h -15 c -0.92,0 -1.67,0.75 -1.67,1.67 v 14.99 1.67 6.66 c 0,0.92 0.75,1.67 1.67,1.67 h 14.99 c 0.92,0 1.67,-0.75 1.67,-1.67 V 86.97 85.3 70.31 c 0,-0.92 -0.74,-1.67 -1.66,-1.67 z"
       inkscape:connector-curvature="0" />
    <linearGradient
       inkscape:collect="always"
       xlink:href="#linearGradient988"
       id="linearGradient990"
       x1="54.872608"
       y1="249.17397"
       x2="69.968328"
       y2="249.17397"
       gradientUnits="userSpaceOnUse" />
  </defs>
  <g
     inkscape:label="Ebene 1"
     inkscape:groupmode="layer"
     id="layer1"
     transform="translate(0,-217.62499)">
    <path
       style="fill:none;stroke:#000000;stroke-width:1.32291675;stroke-linecap:round;stroke-linejoin:round;stroke-miterlimit:4;stroke-dasharray:4, 2;stroke-dashoffset:0;stroke-opacity:1"
       d="m 42.649875,255.93561 c 4.280844,15.22078 18.708869,31.8685 24.416658,19.34307"
       id="pathP4"
       inkscape:connector-curvature="0"
       sodipodi:nodetypes="cc"
       inkscape:label="p4" />
    <path
       style="fill:none;stroke:#000000;stroke-width:1.32291675;stroke-linecap:round;stroke-linejoin:round;stroke-miterlimit:4;stroke-dasharray:none;stroke-dashoffset:0;stroke-opacity:1"
       d="m 11.761624,239.94464 c 4.122293,5.7078 4.756493,14.11092 21.245663,11.41558"
       id="pathP1"
       inkscape:connector-curvature="0"
       sodipodi:nodetypes="cc"
       inkscape:label="p1">
      <!-- power line -->
    </path>
    <path
       style="fill:none;stroke:#000000;stroke-width:1.32291675;stroke-linecap:square;stroke-linejoin:round;stroke-miterlimit:4;stroke-dasharray:none;stroke-dashoffset:6.08541679;stroke-opacity:1"
       d="m 45.258774,250.96106 c 6.976188,1e-5 19.818716,7.61037 21.721311,-3.8052"
       id="pathP2"
       inkscape:connector-curvature="0"
       sodipodi:nodetypes="cc"
       inkscape:label="p2" />
    <path
       style="fill:none;stroke:#000000;stroke-width:1.32291675;stroke-linecap:round;stroke-linejoin:round;stroke-miterlimit:4;stroke-dasharray:4, 2;stroke-dashoffset:0;stroke-opacity:1"
       d="m 15.566817,270.06908 c 4.915042,-1.26839 17.281921,3.48809 20.135815,-14.58657"
       id="pathP3"
       inkscape:connector-curvature="0"
       sodipodi:nodetypes="cc"
       inkscape:label="p3" />
    <g
       transform="matrix(0.02047987,0,0,0.02422624,6.4703036,263.53439)"
       id="g4519">
      <path
         style="fill:#ff641a"
         inkscape:connector-curvature="0"
         id="path2"
         d="m 502,390 v 20 c 0,11.05078 -8.94922,20 -20,20 H 30 c -11.050781,0 -20,-8.94922 -20,-20 v -20 c 0,-11.05078 8.949219,-20 20,-20 h 452 c 11.05078,0 20,8.94922 20,20 z m 0,0" />
      <path
         style="fill:#ff641a"
         inkscape:connector-curvature="0"
         id="path4"
         d="m 502,90 v 20 c 0,11.05078 -8.94922,20 -20,20 -45.125,0 -396.140625,0 -452,0 -11.050781,0 -20,-8.94922 -20,-20 V 90 C 10,78.949219 18.949219,70 30,70 h 452 c 11.05078,0 20,8.949219 20,20 z m 0,0" />
      <path
         style="fill:#ffda2d"
         inkscape:connector-curvature="0"
         id="path6"
         d="M 472,130 V 370 H 40 V 130 Z m 0,0" />
      <path
         style="fill:#deecf1"
         inkscape:connector-curvature="0"
         id="path8"
         d="M 436,30 V 70 H 356 V 30 c 0,-11.050781 8.94922,-20 20,-20 h 40 c 11.05078,0 20,8.949219 20,20 z m 0,0" />
      <path
         style="fill:#7c8388"
         inkscape:connector-curvature="0"
         id="path10"
         d="m 296,250 -60,80 10,-70 -40,-20 50,-70 v 60 z m 0,0" />
      <path
         style="fill:#deecf1"
         inkscape:connector-curvature="0"
         id="path12"
         d="M 156,30 V 70 H 76 V 30 C 76,18.949219 84.949219,10 96,10 h 40 c 11.05078,0 20,8.949219 20,20 z m 0,0" />
      <path
         inkscape:connector-curvature="0"
         id="path14"
         d="M 482,60 H 446 V 30 C 446,13.457031 432.54297,0 416,0 H 376 C 359.45703,0 346,13.457031 346,30 V 60 H 166 V 30 C 166,13.457031 152.54297,0 136,0 H 96 C 79.457031,0 66,13.457031 66,30 V 60 H 30 C 13.457031,60 0,73.457031 0,90 v 20 c 0,16.54297 13.457031,30 30,30 V 360 C 13.457031,360 0,373.45703 0,390 v 20 c 0,16.54297 13.457031,30 30,30 h 181 c 5.52344,0 10,-4.47656 10,-10 0,-5.52344 -4.47656,-10 -10,-10 H 30 c -5.515625,0 -10,-4.48438 -10,-10 v -20 c 0,-5.51563 4.484375,-10 10,-10 h 452 c 5.51562,0 10,4.48437 10,10 v 20 c 0,5.51562 -4.48438,10 -10,10 H 301 c -5.52344,0 -10,4.47656 -10,10 0,5.52344 4.47656,10 10,10 h 181 c 16.54297,0 30,-13.45703 30,-30 v -20 c 0,-16.54297 -13.45703,-30 -30,-30 V 140 c 16.54297,0 30,-13.45703 30,-30 V 90 C 512,73.457031 498.54297,60 482,60 Z M 366,30 c 0,-5.515625 4.48437,-10 10,-10 h 40 c 5.51562,0 10,4.484375 10,10 V 60 H 366 Z M 86,30 c 0,-5.515625 4.484375,-10 10,-10 h 40 c 5.51562,0 10,4.484375 10,10 V 60 H 86 Z M 462,360 H 50 V 140 h 412 z m 30,-250 c 0,5.51563 -4.48438,10 -10,10 H 30 c -5.515625,0 -10,-4.48437 -10,-10 V 90 c 0,-5.515625 4.484375,-10 10,-10 h 452 c 5.51562,0 10,4.484375 10,10 z m 0,0" />
      <path
         inkscape:connector-curvature="0"
         id="path16"
         d="m 106,260 h 20 v 20 c 0,5.52344 4.47656,10 10,10 5.52344,0 10,-4.47656 10,-10 v -20 h 20 c 5.52344,0 10,-4.47656 10,-10 0,-5.52344 -4.47656,-10 -10,-10 h -20 v -20 c 0,-5.52344 -4.47656,-10 -10,-10 -5.52344,0 -10,4.47656 -10,10 v 20 h -20 c -5.52344,0 -10,4.47656 -10,10 0,5.52344 4.47656,10 10,10 z m 0,0" />
      <path
         inkscape:connector-curvature="0"
         id="path18"
         d="m 346,260 h 60 c 5.52344,0 10,-4.47656 10,-10 0,-5.52344 -4.47656,-10 -10,-10 h -60 c -5.52344,0 -10,4.47656 -10,10 0,5.52344 4.47656,10 10,10 z m 0,0" />
      <path
         inkscape:connector-curvature="0"
         id="path20"
         d="m 201.52734,248.94531 33.55469,16.77344 -8.98047,62.86719 c -0.64844,4.51953 1.85156,8.90234 6.07422,10.65234 4.1875,1.73828 9.06641,0.4375 11.82422,-3.23828 l 60,-80 c 1.78125,-2.37109 2.41406,-5.41406 1.73437,-8.29688 -0.68359,-2.88671 -2.60937,-5.32031 -5.26171,-6.64843 L 266,223.82031 V 170 c 0,-4.34766 -2.80859,-8.19531 -6.94922,-9.52344 -4.13672,-1.32812 -8.66016,0.17578 -11.1875,3.71094 l -50,70 c -1.69922,2.37891 -2.27344,5.38281 -1.56641,8.22266 0.70313,2.83593 2.61329,5.22656 5.23047,6.53515 z M 246,201.20312 V 230 c 0,3.78906 2.14062,7.25 5.52734,8.94531 l 29.28125,14.64063 -29.39062,39.1875 4.48047,-31.35938 c 0.60937,-4.26172 -1.57813,-8.43359 -5.42969,-10.35937 L 220.9375,236.28906 Z m 0,0" />
      <path
         inkscape:connector-curvature="0"
         id="path22"
         d="m 266,430 c 0,5.52344 -4.47656,10 -10,10 -5.52344,0 -10,-4.47656 -10,-10 0,-5.52344 4.47656,-10 10,-10 5.52344,0 10,4.47656 10,10 z m 0,0" />
    </g>
    <g
       id="house"
       transform="matrix(0.15785944,0,0,0.15764831,26.663038,238.17063)">
      <radialGradient
         id="radialGradient4862"
         cx="74.028603"
         cy="22.308901"
         gradientUnits="userSpaceOnUse"
         r="106.9168">
        <stop
           offset="0"
           style="stop-color:#FFD54F"
           id="stop4848" />
        <stop
           offset="0.179"
           style="stop-color:#FFD34B"
           id="stop4850" />
        <stop
           offset="0.3526"
           style="stop-color:#FFCE3F"
           id="stop4852" />
        <stop
           offset="0.524"
           style="stop-color:#FFC62C"
           id="stop4854" />
        <stop
           offset="0.693"
           style="stop-color:#FFBA11"
           id="stop4856" />
        <stop
           offset="0.7785"
           style="stop-color:#FFB300"
           id="stop4858" />
        <stop
           offset="1"
           style="stop-color:#FFB300"
           id="stop4860" />
      </radialGradient>
      <polygon
         points="74.03,22 27.39,61.98 30.72,61.98 30.72,120.95 117.34,120.95 117.34,61.98 120.67,61.98 "
         style="fill:url(#SVGID_3_)"
         id="polygon68" />
      <g
         style="opacity:0.2"
         id="g72">
        <path
           d="m 74.03,25.95 40.58,34.78 c -0.17,0.38 -0.27,0.8 -0.27,1.24 v 55.97 H 33.72 V 61.98 c 0,-0.44 -0.1,-0.87 -0.27,-1.24 L 74.03,25.95 m 0,-3.95 -46.64,39.98 h 3.33 v 58.97 h 86.62 V 61.98 h 3.33 z"
           style="fill:#424242"
           id="path70"
           inkscape:connector-curvature="0" />
      </g>
      <g
         style="opacity:0.2"
         id="g76">
        <path
           d="m 81.52,40.33 c 0.92,0 1.67,0.75 1.67,1.67 v 14.99 c 0,0.92 -0.75,1.67 -1.67,1.67 H 66.53 c -0.92,0 -1.67,-0.75 -1.67,-1.67 v -15 c 0,-0.92 0.75,-1.67 1.67,-1.67 h 14.99 m 0,-1.99 H 66.53 c -2.02,0 -3.67,1.64 -3.67,3.67 v 14.99 c 0,2.02 1.64,3.67 3.67,3.67 h 14.99 c 2.02,0 3.67,-1.64 3.67,-3.67 v -15 c 0,-2.02 -1.64,-3.66 -3.67,-3.66 z"
           style="fill:#424242"
           id="path74"
           inkscape:connector-curvature="0" />
      </g>
      <g
         style="opacity:0.2"
         id="g80">
        <path
           d="m 102.35,68.64 c 0.92,0 1.67,0.75 1.67,1.67 v 14.99 1.67 6.66 c 0,0.92 -0.75,1.67 -1.67,1.67 h -15 c -0.92,0 -1.67,-0.75 -1.67,-1.67 V 86.97 85.3 70.31 c 0,-0.92 0.75,-1.67 1.67,-1.67 h 15 m 0,-2 h -15 c -2.02,0 -3.67,1.64 -3.67,3.67 v 14.99 1.67 6.66 c 0,2.02 1.64,3.67 3.67,3.67 h 14.99 c 2.02,0 3.67,-1.64 3.67,-3.67 V 86.97 85.3 70.31 c 0,-2.02 -1.64,-3.67 -3.66,-3.67 z"
           style="fill:#424242"
           id="path78"
           inkscape:connector-curvature="0" />
      </g>
      <radialGradient
         id="radialGradient4877"
         cx="58.516602"
         cy="65.103897"
         gradientUnits="userSpaceOnUse"
         r="43.726898">
        <stop
           offset="0"
           style="stop-color:#D32F2F"
           id="stop4871" />
        <stop
           offset="0.4374"
           style="stop-color:#CA2929"
           id="stop4873" />
        <stop
           offset="0.9957"
           style="stop-color:#B71C1C"
           id="stop4875" />
      </radialGradient>
      <path
         d="M 74.03,108.62 H 44.05 V 66.98 c 0,-0.92 0.75,-1.67 1.67,-1.67 h 26.65 c 0.92,0 1.67,0.75 1.67,1.67 v 41.64 z"
         style="fill:url(#SVGID_4_)"
         id="path89"
         inkscape:connector-curvature="0" />
      <radialGradient
         id="radialGradient4884"
         cx="58.932999"
         cy="67.394203"
         gradientUnits="userSpaceOnUse"
         r="39.251801">
        <stop
           offset="0"
           style="stop-color:#EF5350"
           id="stop4880" />
        <stop
           offset="1"
           style="stop-color:#E53935"
           id="stop4882" />
      </radialGradient>
      <path
         d="M 70.7,106.6 H 47.38 c -0.46,0 -0.83,-0.37 -0.83,-0.83 v -37.6 c 0,-0.46 0.37,-0.83 0.83,-0.83 H 70.7 c 0.46,0 0.83,0.37 0.83,0.83 v 37.6 c 0,0.46 -0.37,0.83 -0.83,0.83 z"
         style="fill:url(#SVGID_5_)"
         id="path96"
         inkscape:connector-curvature="0" />
      <rect
         height="15.82"
         style="fill:#4fc3f7"
         width="15.82"
         x="66.120003"
         y="41.580002"
         id="rect98" />
      <path
         d="m 64.87,41.99 v 14.99 c 0,0.92 0.75,1.67 1.67,1.67 h 14.99 c 0.92,0 1.67,-0.75 1.67,-1.67 V 41.99 c 0,-0.92 -0.75,-1.67 -1.67,-1.67 h -15 c -0.92,0.01 -1.66,0.75 -1.66,1.67 z m 16.65,6.66 h -6.66 v -6.66 h 6.66 z M 73.2,41.99 v 6.66 h -6.66 v -6.66 z m -6.67,8.33 h 6.66 v 6.66 h -6.66 z m 8.33,6.66 v -6.66 h 6.66 v 6.66 z"
         style="fill:#eeeeee"
         id="path100"
         inkscape:connector-curvature="0" />
      <rect
         height="24.15"
         style="fill:#4fc3f7"
         width="16.610001"
         x="86.550003"
         y="69.889999"
         id="rect102" />
      <g
         id="g122">
        <radialGradient
           id="radialGradient4896"
           cx="58.620701"
           cy="70.933899"
           gradientUnits="userSpaceOnUse"
           r="34.659401">
          <stop
             offset="0"
             style="stop-color:#E53935"
             id="stop4890" />
          <stop
             offset="0.4072"
             style="stop-color:#DC3431"
             id="stop4892" />
          <stop
             offset="1"
             style="stop-color:#C62828"
             id="stop4894" />
        </radialGradient>
        <path
           d="M 68.2,83.63 H 49.88 c -0.46,0 -0.83,-0.37 -0.83,-0.83 V 71.14 c 0,-0.46 0.37,-0.83 0.83,-0.83 H 68.2 c 0.46,0 0.83,0.37 0.83,0.83 V 82.8 c 0,0.46 -0.37,0.83 -0.83,0.83 z"
           style="fill:url(#SVGID_6_)"
           id="path111"
           inkscape:connector-curvature="0" />
        <radialGradient
           id="radialGradient4905"
           cx="58.620701"
           cy="70.933899"
           gradientUnits="userSpaceOnUse"
           r="34.659401">
          <stop
             offset="0"
             style="stop-color:#E53935"
             id="stop4899" />
          <stop
             offset="0.4072"
             style="stop-color:#DC3431"
             id="stop4901" />
          <stop
             offset="1"
             style="stop-color:#C62828"
             id="stop4903" />
        </radialGradient>
        <path
           d="M 68.2,103.62 H 49.88 c -0.46,0 -0.83,-0.37 -0.83,-0.83 V 87.8 c 0,-0.46 0.37,-0.83 0.83,-0.83 H 68.2 c 0.46,0 0.83,0.37 0.83,0.83 v 14.99 c 0,0.46 -0.37,0.83 -0.83,0.83 z"
           style="fill:url(#SVGID_7_)"
           id="path120"
           inkscape:connector-curvature="0" />
      </g>
      <g
         id="g141">
        <linearGradient
           id="linearGradient4919"
           gradientUnits="userSpaceOnUse"
           x1="59.056702"
           x2="59.056702"
           y1="106.6811"
           y2="112.1198">
          <stop
             offset="4.291845e-03"
             style="stop-color:#BDBDBD"
             id="stop4909" />
          <stop
             offset="0.2153"
             style="stop-color:#B5B5B5"
             id="stop4911" />
          <stop
             offset="0.5502"
             style="stop-color:#9E9E9E"
             id="stop4913" />
          <stop
             offset="0.9652"
             style="stop-color:#787878"
             id="stop4915" />
          <stop
             offset="1"
             style="stop-color:#757575"
             id="stop4917" />
        </linearGradient>
        <path
           d="M 77.38,111.39 H 40.73 v -3.05 c 0,-1.14 0.92,-2.06 2.06,-2.06 h 32.52 c 1.14,0 2.06,0.92 2.06,2.06 v 3.05 z"
           style="fill:url(#SVGID_8_)"
           id="path135"
           inkscape:connector-curvature="0" />
        <g
           style="opacity:0.3"
           id="g139">
          <path
             d="m 75.32,107.28 c 0.59,0 1.06,0.48 1.06,1.06 v 2.05 H 41.73 v -2.05 c 0,-0.59 0.48,-1.06 1.06,-1.06 h 32.53 m 0,-1 H 42.8 c -1.14,0 -2.06,0.92 -2.06,2.06 v 3.05 h 36.65 v -3.05 c -0.01,-1.14 -0.93,-2.06 -2.07,-2.06 z"
             style="fill:#263238"
             id="path137"
             inkscape:connector-curvature="0" />
        </g>
      </g>
      <g
         id="g183">
        <g
           id="g167">
          <ellipse
             cx="57.169998"
             cy="108.07"
             rx="0.34999999"
             ry="0.70999998"
             style="opacity:0.2;fill:#424242"
             transform="matrix(0.3918,-0.92,0.92,0.3918,-64.6559,118.3249)"
             id="ellipse143" />
          <ellipse
             cx="73.059998"
             cy="109.63"
             rx="0.31"
             ry="0.57999998"
             style="opacity:0.2;fill:#424242"
             transform="matrix(0.6303,-0.7763,0.7763,0.6303,-58.0961,97.2452)"
             id="ellipse145" />
          <ellipse
             cx="59.290001"
             cy="109.29"
             rx="0.86000001"
             ry="0.41999999"
             style="opacity:0.07999998;fill:#424242"
             id="ellipse147" />
          <ellipse
             cx="66.68"
             cy="109.24"
             rx="0.86000001"
             ry="0.41999999"
             style="opacity:0.07999998;fill:#424242"
             id="ellipse149" />
          <ellipse
             cx="64.910004"
             cy="108.18"
             rx="0.58999997"
             ry="0.36000001"
             style="opacity:0.07999998;fill:#424242"
             id="ellipse151" />
          <ellipse
             cx="74.529999"
             cy="108.32"
             rx="0.85000002"
             ry="0.50999999"
             style="opacity:0.07999998;fill:#424242"
             id="ellipse153" />
          <ellipse
             cx="54.16"
             cy="108.05"
             rx="0.58999997"
             ry="0.28999999"
             style="opacity:0.07999998;fill:#424242"
             id="ellipse155" />
          <ellipse
             cx="71.099998"
             cy="108.58"
             rx="0.95999998"
             ry="0.47"
             style="opacity:0.07999998;fill:#424242"
             transform="matrix(0.9888,-0.149,0.149,0.9888,-15.3871,11.8074)"
             id="ellipse157" />
          <ellipse
             cx="55.509998"
             cy="109.19"
             rx="0.93000001"
             ry="0.46000001"
             style="opacity:0.2;fill:#424242"
             transform="matrix(0.9735,-0.2286,0.2286,0.9735,-23.4892,15.5777)"
             id="ellipse159" />
          <ellipse
             cx="68.209999"
             cy="108.05"
             rx="1.1799999"
             ry="0.43000001"
             style="opacity:0.2;fill:#424242"
             id="ellipse161" />
          <ellipse
             cx="61.119999"
             cy="107.84"
             rx="0.70999998"
             ry="0.31"
             style="opacity:0.2;fill:#424242"
             transform="matrix(0.835,-0.5503,0.5503,0.835,-49.2524,51.4282)"
             id="ellipse163" />
          <ellipse
             cx="63.27"
             cy="109.16"
             rx="0.47999999"
             ry="1.23"
             style="opacity:0.2;fill:#424242"
             transform="matrix(0.4194,-0.9078,0.9078,0.4194,-62.3584,120.817)"
             id="ellipse165" />
        </g>
        <g
           id="g181">
          <ellipse
             cx="50.490002"
             cy="110.01"
             rx="0.31"
             ry="0.57999998"
             style="opacity:0.2;fill:#424242"
             transform="matrix(0.6303,-0.7763,0.7763,0.6303,-66.7393,79.8665)"
             id="ellipse169" />
          <ellipse
             cx="44.110001"
             cy="109.62"
             rx="0.86000001"
             ry="0.41999999"
             style="opacity:0.07999998;fill:#424242"
             id="ellipse171" />
          <ellipse
             cx="42.34"
             cy="108.57"
             rx="0.58999997"
             ry="0.36000001"
             style="opacity:0.07999998;fill:#424242"
             id="ellipse173" />
          <ellipse
             cx="51.959999"
             cy="108.71"
             rx="0.85000002"
             ry="0.50999999"
             style="opacity:0.07999998;fill:#424242"
             id="ellipse175" />
          <ellipse
             cx="48.529999"
             cy="108.97"
             rx="0.95999998"
             ry="0.47"
             style="opacity:0.07999998;fill:#424242"
             transform="matrix(0.9888,-0.149,0.149,0.9888,-15.6967,8.4483)"
             id="ellipse177" />
          <ellipse
             cx="45.639999"
             cy="108.43"
             rx="1.1799999"
             ry="0.43000001"
             style="opacity:0.2;fill:#424242"
             id="ellipse179" />
        </g>
      </g>
      <g
         id="g191">
        <defs
           id="defs186">
          <path
             id="path4749"
             d="m 102.35,68.64 h -15 c -0.92,0 -1.67,0.75 -1.67,1.67 v 14.99 1.67 6.66 c 0,0.92 0.75,1.67 1.67,1.67 h 14.99 c 0.92,0 1.67,-0.75 1.67,-1.67 V 86.97 85.3 70.31 c 0,-0.92 -0.74,-1.67 -1.66,-1.67 z"
             inkscape:connector-curvature="0" />
        </defs>
        <clipPath
           id="SVGID_10_">
          <use
             style="overflow:visible"
             xlink:href="#SVGID_9_"
             id="use188"
             x="0"
             y="0"
             width="100%"
             height="100%" />
        </clipPath>
      </g>
      <path
         d="m 87.35,68.64 c -0.92,0 -1.67,0.75 -1.67,1.67 v 14.99 1.67 6.66 c 0,0.92 0.75,1.67 1.67,1.67 h 14.99 c 0.92,0 1.67,-0.75 1.67,-1.67 V 86.97 85.3 70.31 c 0,-0.92 -0.75,-1.67 -1.67,-1.67 z m 8.33,1.67 h 6.66 v 6.66 h -6.66 z m -8.33,0 h 6.66 v 6.66 h -6.66 z m 0,8.33 h 6.66 v 6.66 h -6.66 z m 6.67,14.99 h -6.66 v -6.66 h 6.66 z m 8.33,0 h -6.66 v -6.66 h 6.66 z M 95.68,85.3 v -6.66 h 6.66 v 6.66 z"
         style="fill:#eeeeee"
         id="path193"
         inkscape:connector-curvature="0" />
      <g
         id="g199">
        <circle
           cx="67.980003"
           cy="86.129997"
           r="3.5"
           style="fill:#ffc107"
           id="circle195" />
        <path
           d="m 67.98,83.63 c 1.38,0 2.5,1.12 2.5,2.5 0,1.38 -1.12,2.5 -2.5,2.5 -1.38,0 -2.5,-1.12 -2.5,-2.5 0,-1.38 1.12,-2.5 2.5,-2.5 m 0,-2 c -2.48,0 -4.5,2.02 -4.5,4.5 0,2.48 2.02,4.5 4.5,4.5 2.48,0 4.5,-2.02 4.5,-4.5 0,-2.48 -2.02,-4.5 -4.5,-4.5 z"
           style="fill:#c62828"
           id="path197"
           inkscape:connector-curvature="0" />
      </g>
      <path
         d="M 104.84,98.63 H 84.86 c -0.92,0 -1.67,-0.75 -1.67,-1.67 v -3.33 c 0,-0.92 0.75,-1.67 1.67,-1.67 h 19.99 c 0.92,0 1.67,0.75 1.67,1.67 v 3.33 c -0.01,0.92 -0.76,1.67 -1.68,1.67 z"
         style="fill:#795548"
         id="path201"
         inkscape:connector-curvature="0" />
      <g
         style="opacity:0.2"
         id="g205">
        <path
           d="m 104.84,93.63 v 3.33 H 84.86 v -3.33 h 19.98 v 0 m 0,-1.67 H 84.86 c -0.92,0 -1.67,0.75 -1.67,1.67 v 3.33 c 0,0.92 0.75,1.67 1.67,1.67 h 19.99 c 0.92,0 1.67,-0.75 1.67,-1.67 v -3.33 c -0.01,-0.92 -0.76,-1.67 -1.68,-1.67 z"
           style="fill:#424242"
           id="path203"
           inkscape:connector-curvature="0" />
      </g>
      <radialGradient
         id="radialGradient4966"
         cx="73.612099"
         cy="18.4639"
         gradientUnits="userSpaceOnUse"
         r="56.333599">
        <stop
           offset="0"
           style="stop-color:#F44336"
           id="stop4958" />
        <stop
           offset="0.34"
           style="stop-color:#EE3F35"
           id="stop4960" />
        <stop
           offset="0.8027"
           style="stop-color:#DC3531"
           id="stop4962" />
        <stop
           offset="0.9957"
           style="stop-color:#D32F2F"
           id="stop4964" />
      </radialGradient>
      <path
         d="M 122.57,59.65 76.69,19.67 c -1.53,-1.34 -3.8,-1.34 -5.33,0 L 25.49,59.65 c -1.72,1.5 -1.92,4.13 -0.44,5.87 1.47,1.75 4.06,1.95 5.78,0.45 L 72.4,29.75 c 0.94,-0.82 2.34,-0.82 3.28,0 l 41.57,36.22 c 0.77,0.67 1.72,1 2.66,1 1.15,0 2.3,-0.49 3.11,-1.45 1.47,-1.74 1.27,-4.37 -0.45,-5.87 z"
         style="fill:url(#SVGID_11_)"
         id="path216"
         inkscape:connector-curvature="0" />
      <g
         style="opacity:0.2"
         id="g220">
        <path
           d="m 74.03,21.67 c 0.18,0 0.44,0.05 0.7,0.26 l 45.88,39.98 c 0.48,0.42 0.54,1.19 0.12,1.68 -0.28,0.34 -0.63,0.39 -0.82,0.39 -0.18,0 -0.44,-0.05 -0.69,-0.26 L 77.64,27.49 c -1,-0.87 -2.28,-1.35 -3.61,-1.35 -1.33,0 -2.61,0.48 -3.61,1.35 L 28.85,63.71 c -0.25,0.22 -0.52,0.26 -0.69,0.26 -0.18,0 -0.53,-0.05 -0.82,-0.39 -0.41,-0.49 -0.36,-1.26 0.12,-1.68 L 73.34,21.92 c 0.24,-0.2 0.51,-0.25 0.69,-0.25 m 0,-3 c -0.95,0 -1.9,0.33 -2.67,1 L 25.49,59.65 c -1.72,1.5 -1.92,4.13 -0.44,5.87 0.81,0.96 1.96,1.45 3.11,1.45 0.94,0 1.89,-0.33 2.66,-1 L 72.39,29.75 c 0.47,-0.41 1.06,-0.61 1.64,-0.61 0.58,0 1.17,0.2 1.64,0.61 l 41.57,36.22 c 0.77,0.67 1.72,1 2.66,1 1.15,0 2.3,-0.49 3.11,-1.45 1.47,-1.75 1.27,-4.37 -0.44,-5.87 L 76.69,19.67 c -0.76,-0.66 -1.71,-1 -2.66,-1 z"
           style="fill:#424242"
           id="path218"
           inkscape:connector-curvature="0" />
      </g>
    </g>
    <path
       style="fill:#ffc000;fill-opacity:1;stroke-width:0.27436003"
       inkscape:connector-curvature="0"
       d="m 13.496365,234.39634 h 1.526062 v 0.14557 c 0,0.24065 0.232889,0.43648 0.51907,0.43648 0.28618,0 0.519068,-0.19583 0.519068,-0.43648 v -0.14557 h 0.346046 v -0.5453 l -2.941391,-0.72745 v -0.32763 h 1.557207 v 0.1454 c 0,0.24064 0.232889,0.43647 0.51907,0.43647 0.28618,0 0.519068,-0.19583 0.519068,-0.43647 v -0.1454 h 0.346046 v -0.54531 l -2.941391,-0.72744 v -0.61864 h -0.346047 v -0.29098 h -0.346046 v 0.29098 h -1.730229 v -0.29098 h -0.346045 v 0.29098 h -0.346046 v 0.61864 l -2.9413933,0.72744 v 0.54531 h 0.3460451 v 0.1454 c 0,0.24064 0.23289,0.43647 0.5190705,0.43647 0.2861805,0 0.5190689,-0.19583 0.5190689,-0.43647 v -0.1454 h 1.5572088 v 0.32763 l -2.9413933,0.72745 v 0.5453 h 0.3460451 v 0.14557 c 0,0.24065 0.23289,0.43648 0.5190705,0.43648 0.2861805,0 0.5190689,-0.19583 0.5190689,-0.43648 v -0.14557 h 1.5260648 l -0.9805225,4.94664 H 7.2363907 v 0.29099 h 9.3432433 v -0.29099 h -2.102748 z m -0.35989,2.03685 -1.228463,0.80849 -1.228462,-0.80849 z m -2.454503,-0.29098 1.22604,-0.8018 1.226042,0.8018 z m 2.884466,0.3774 0.413351,2.08546 -1.791134,-1.17876 z m -1.376571,-1.36354 0.979483,-0.64058 0.291717,1.47192 z m 0.598141,-0.75973 -0.879996,0.57542 -0.879993,-0.57542 z m -1.707045,-0.29099 0.827049,-0.47807 0.827051,0.47807 z m 2.03821,-0.13108 -0.905775,-0.52361 0.905775,-0.52362 z m -0.38411,-1.17831 -0.827051,0.47806 -0.827049,-0.47806 z m -1.384184,-0.29099 0.557133,-0.205 0.557134,0.205 z m 0.988653,-0.36373 0.779641,-0.28676 v 0.57366 z m -0.43152,-0.15871 -0.557133,-0.20499 h 1.114267 z m -0.431517,0.15871 -0.779642,0.28677 v -0.57353 z m -0.779642,0.7858 0.905774,0.52362 -0.905774,0.52361 z m 0.929305,2.22903 -1.271199,0.83134 0.291716,-1.47192 z m 0.0012,2.27024 -1.7911342,1.17876 0.4133532,-2.08546 z m 0.280644,0.18463 1.747532,1.15009 H 10.16049 Z m 3.806506,-3.06912 c 0,0.0803 -0.07751,0.14559 -0.173016,0.14559 -0.0955,0 -0.173017,-0.0652 -0.173017,-0.14559 v -0.14557 h 0.346047 z m 0.346045,-0.47313 v 0.0366 h -2.595344 v -0.67857 z m -0.346045,-1.12727 c 0,0.0803 -0.07751,0.14559 -0.173016,0.14559 -0.0955,0 -0.173017,-0.0651 -0.173017,-0.14559 v -0.1454 h 0.346047 z m 0.346045,-0.47312 v 0.0366 h -2.595344 v -0.67857 z m -2.941391,-1.27275 v 0.29098 h -2.42232 v -0.29098 z m -4.6716206,1.74587 c 0,0.0803 -0.077509,0.14559 -0.1730165,0.14559 -0.095504,0 -0.1730156,-0.0651 -0.1730156,-0.14559 v -0.1454 h 0.3460459 z m -0.6920935,-0.43645 v -0.0366 l 2.5953481,-0.6419 v 0.67856 z m 0,1.56372 2.5953481,-0.6419 v 0.67856 H 7.7554679 Z m 0.6920935,0.47313 c 0,0.0803 -0.077509,0.14559 -0.1730165,0.14559 -0.095504,0 -0.1730156,-0.0652 -0.1730156,-0.14559 v -0.14557 h 0.3460459 z m 1.3000946,4.51019 h 4.320903 l 0.05761,0.29097 H 9.6898618 Z"
       id="path6-2" />
    <g
       id="g1196"
       transform="matrix(0.01672806,0,0,0.01672806,58.790242,258.27833)"
       style="fill:#ffc000;fill-opacity:1">
      <path
         id="path1186"
         d="M 948.8,904.5 H 41.2 C 24,904.5 10,918.4 10,935.7 c 0,17.2 14,31.2 31.2,31.2 h 907.6 c 17.3,0 31.2,-14 31.2,-31.2 0,-17.3 -13.9,-31.2 -31.2,-31.2 z"
         inkscape:connector-curvature="0"
         style="fill:#ffc000;fill-opacity:1" />
      <path
         id="path1188"
         d="M 958.8,754.8 H 41.2 C 24,754.8 10,768.8 10,786 c 0,17.3 14,31.2 31.2,31.2 h 917.6 c 17.2,0 31.2,-14 31.2,-31.2 0,-17.2 -14,-31.2 -31.2,-31.2 z"
         inkscape:connector-curvature="0"
         style="fill:#ffc000;fill-opacity:1" />
      <path
         id="path1190"
         d="m 196.9,637 c -12.2,12.2 -12.2,32 0,44.2 6.1,6.1 14.1,9.1 22.1,9.1 8,0 16,-3 22.1,-9.1 94.2,-94.2 94.2,-247.4 0,-341.5 -33.8,-33.8 -52.4,-78.8 -52.4,-126.6 0,-47.8 18.6,-92.8 52.4,-126.6 12.2,-12.2 12.2,-32 0,-44.2 -12.2,-12.2 -32,-12.2 -44.2,0 -45.6,45.6 -70.7,106.3 -70.7,170.8 0,64.5 25.1,125.2 70.7,170.8 69.8,69.7 69.8,183.3 0,253.1 z"
         inkscape:connector-curvature="0"
         style="fill:#ffc000;fill-opacity:1" />
      <path
         id="path1192"
         d="m 476.2,383.8 c 69.8,69.8 69.8,183.4 0,253.2 -12.2,12.2 -12.2,32 0,44.2 6.1,6.1 14.1,9.1 22.1,9.1 8,0 16,-3 22.1,-9.1 94.1,-94.2 94.1,-247.4 0,-341.5 0,0 0,0 0,0 C 486.6,305.9 468,260.9 468,213.1 c 0,-47.8 18.6,-92.8 52.5,-126.6 12.2,-12.2 12.2,-32 0,-44.2 -12.2,-12.2 -32,-12.2 -44.2,0 -45.6,45.6 -70.7,106.3 -70.7,170.8 0,64.4 25.1,125.1 70.6,170.7 -0.1,-0.1 0,0 0,0 z"
         inkscape:connector-curvature="0"
         style="fill:#ffc000;fill-opacity:1" />
      <path
         id="path1194"
         d="m 744,637 c -12.2,12.2 -12.2,32 0,44.2 6.1,6.1 14.1,9.1 22.1,9.1 8,0 16,-3 22.1,-9.1 94.2,-94.2 94.2,-247.4 0,-341.5 -69.8,-69.8 -69.8,-183.4 0,-253.2 12.2,-12.2 12.2,-32 0,-44.2 -12.2,-12.2 -31.9,-12.2 -44.2,0 -94.2,94.2 -94.2,247.4 0,341.5 69.7,69.8 69.7,183.4 0,253.2 z"
         inkscape:connector-curvature="0"
         style="fill:#ffc000;fill-opacity:1" />
    </g>
    <g
       id="g1285"
       transform="matrix(0.01545502,0,0,0.01545502,58.722328,230.98901)"
       style="fill:#ffc000;fill-opacity:1">
      <g
         id="g1283"
         transform="matrix(0.1,0,0,-0.1,0,512)"
         style="fill:#ffc000;fill-opacity:1">
        <path
           id="path1263"
           d="m 8554.2,4965.2 c -430.9,-28.7 -789,-61.3 -796.6,-68.9 -9.6,-11.5 -469.2,-1510.9 -700.9,-2288.4 -9.6,-32.5 49.8,-34.5 1068.6,-34.5 h 1080 l 243.2,1097.3 c 134.1,601.3 243.2,1118.3 243.2,1147.1 0,76.6 -40.2,149.4 -97.7,180 -67,34.5 -95.7,32.6 -1039.8,-32.6 z"
           inkscape:connector-curvature="0"
           style="fill:#ffc000;fill-opacity:1" />
        <path
           id="path1265"
           d="m 6411.3,4821.6 c -346.6,-23 -633.8,-47.9 -639.6,-53.6 -9.6,-9.6 -815.8,-2081.6 -840.7,-2160.1 -9.6,-32.5 34.5,-34.5 838.8,-34.5 H 6620 L 6941.8,3642 c 178.1,586 335.1,1103 348.5,1149 l 24.9,80.4 -137.9,-1.9 c -76.6,-1.9 -421.3,-23 -766,-47.9 z"
           inkscape:connector-curvature="0"
           style="fill:#ffc000;fill-opacity:1" />
        <path
           id="path1267"
           d="m 4214.9,4678 c -911.5,-63.2 -919.2,-63.2 -976.6,-109.1 -21.1,-17.2 -245.1,-471.1 -496,-1009.2 L 2286.5,2583 3378,2577.3 c 601.3,-1.9 1095.4,-1.9 1097.3,1.9 9.6,7.7 811.9,2077.7 825.4,2125.6 9.6,28.7 -5.7,32.6 -130.2,30.6 -78.6,-1.9 -507.5,-26.8 -955.6,-57.4 z"
           inkscape:connector-curvature="0"
           style="fill:#ffc000;fill-opacity:1" />
        <path
           id="path1269"
           d="M 1717.8,1363.2 C 1511,920.9 1344.4,553.2 1348.2,549.3 c 11.5,-9.6 2179.2,-141.7 2242.4,-136 53.6,5.7 61.3,23 386.8,867.5 183.8,473 333.2,867.5 333.2,875.1 0,7.7 -497.9,15.3 -1108.8,15.3 H 2095 Z"
           inkscape:connector-curvature="0"
           style="fill:#ffc000;fill-opacity:1" />
        <path
           id="path1271"
           d="m 4419.8,1294.3 c -185.8,-482.6 -339,-888.5 -339,-900 0,-13.4 11.5,-23 24.9,-23 11.5,0 421.3,-23 907.7,-51.7 561.1,-32.5 892.4,-46 903.9,-34.5 13.4,15.3 124.5,379.2 568.7,1853.7 9.6,30.6 -40.2,32.6 -857.9,32.6 h -867.5 z"
           inkscape:connector-curvature="0"
           style="fill:#ffc000;fill-opacity:1" />
        <path
           id="path1273"
           d="M 6631.6,1210 C 6472.7,681.5 6344.4,246.8 6346.2,244.9 c 9.6,-9.6 2296.1,-143.6 2303.7,-136 3.8,3.8 107.2,455.8 229.8,1001.5 120.7,545.8 224.1,1009.2 229.8,1028.3 9.6,30.6 -51.7,32.6 -1087.7,32.6 H 6922.6 Z"
           inkscape:connector-curvature="0"
           style="fill:#ffc000;fill-opacity:1" />
        <path
           id="path1275"
           d="m 1124.1,89.8 c -13.4,-30.6 -203,-434.7 -421.3,-900 -270,-580.2 -394.5,-867.5 -394.5,-911.5 0,-86.2 61.3,-160.9 149.4,-185.8 97.7,-26.8 2169.7,-252.8 2185,-239.4 32.6,32.6 836.8,2144.8 817.7,2148.6 -23,5.7 -2208,139.8 -2269.2,139.8 -23,-0.1 -49.8,-21.1 -67.1,-51.7 z"
           inkscape:connector-curvature="0"
           style="fill:#ffc000;fill-opacity:1" />
        <path
           id="path1277"
           d="m 3891.2,-73 c -24.9,-67 -810,-2089.2 -817.7,-2114.1 -9.6,-19.2 2012.6,-254.7 2027.9,-235.5 11.5,11.5 683.6,2246.2 683.6,2267.3 0,17.2 -1645,128.3 -1834.5,124.5 -26.7,-0.1 -49.7,-17.3 -59.3,-42.2 z"
           inkscape:connector-curvature="0"
           style="fill:#ffc000;fill-opacity:1" />
        <path
           id="path1279"
           d="m 5865.6,-1317.8 c -191.5,-633.8 -346.6,-1154.7 -342.8,-1156.7 7.7,-9.6 2259.6,-256.6 2326.7,-256.6 86.2,0 166.6,46 191.5,109.2 24.9,59.4 524.7,2305.6 517.1,2313.3 -5.7,5.7 -2271.2,145.5 -2322.9,143.6 -11.5,0.1 -176.2,-518.9 -369.6,-1152.8 z"
           inkscape:connector-curvature="0"
           style="fill:#ffc000;fill-opacity:1" />
        <path
           id="path1281"
           d="m 4452.3,-2853.6 -65.1,-65.1 v -325.5 -325.5 l -122.6,-42.1 c -367.7,-120.6 -622.4,-429 -683.6,-823.4 -24.9,-168.5 -1.9,-254.7 86.2,-308.3 57.5,-34.5 114.9,-36.4 1539.6,-36.4 1053.2,0 1493.7,5.7 1522.4,21.1 111.1,57.5 136,180 80.4,415.6 -80.4,340.9 -365.8,647.3 -693.2,743 l -101.5,28.7 v 247 c 0,275.8 -13.4,327.5 -103.4,371.5 -51.7,24.9 -1193,164.7 -1348.1,164.7 -26.8,-0.1 -74.7,-28.9 -111.1,-65.3 z"
           inkscape:connector-curvature="0"
           style="fill:#ffc000;fill-opacity:1" />
      </g>
    </g>
    <text
       xml:space="preserve"
       style="font-style:normal;font-weight:normal;font-size:10.58333397px;line-height:1.25;font-family:sans-serif;text-align:center;letter-spacing:0px;word-spacing:0px;text-anchor:middle;fill:#c0c0c0;fill-opacity:1;stroke:none;stroke-width:0.26458335"
       x="38.398533"
       y="239.2879"
       id="text1349"><tspan
         sodipodi:role="line"
         id="tspan1347"
         x="38.398533"
         y="239.2879"
         style="font-size:5.64444447px;text-align:center;text-anchor:middle;fill:#c0c0c0;fill-opacity:1;stroke-width:0.26458335">{{house}}</tspan></text>
    <text
       xml:space="preserve"
       style="font-style:normal;font-weight:normal;font-size:10.58333397px;line-height:1.25;font-family:sans-serif;letter-spacing:0px;word-spacing:0px;fill:#c0c0c0;fill-opacity:1;stroke:none;stroke-width:0.26458335"
       x="28.909597"
       y="273.36957"
       id="text1349-5"><tspan
         sodipodi:role="line"
         id="tspan1347-3"
         x="28.909597"
         y="273.36957"
         style="font-size:4.23333359px;fill:#c0c0c0;fill-opacity:1;stroke-width:0.26458335">{{p3}}</tspan></text>
    <text
       xml:space="preserve"
       style="font-style:normal;font-weight:normal;font-size:10.58333397px;line-height:1.25;font-family:sans-serif;letter-spacing:0px;word-spacing:0px;fill:#c0c0c0;fill-opacity:1;stroke:none;stroke-width:0.26458335"
       x="8.0469236"
       y="251.13461"
       id="text1349-5-5"><tspan
         sodipodi:role="line"
         id="tspan1347-3-6"
         x="8.0469236"
         y="251.13461"
         style="font-size:4.23333359px;fill:#c0c0c0;fill-opacity:1;stroke-width:0.26458335">{{p1}}</tspan></text>
    <text
       xml:space="preserve"
       style="font-style:normal;font-weight:normal;font-size:10.58333397px;line-height:1.25;font-family:sans-serif;letter-spacing:0px;word-spacing:0px;fill:#c0c0c0;fill-opacity:1;stroke:none;stroke-width:0.26458335"
       x="54.343441"
       y="250.34186"
       id="text1349-5-2"><tspan
         sodipodi:role="line"
         id="tspan1347-3-9"
         x="54.343441"
         y="250.34186"
         style="font-size:4.23333359px;fill:#c0c0c0;fill-opacity:1;stroke-width:0.26458335">{{p2}}</tspan></text>
    <text
       xml:space="preserve"
       style="font-style:normal;font-weight:normal;font-size:10.58333397px;line-height:1.25;font-family:sans-serif;letter-spacing:0px;word-spacing:0px;fill:#c0c0c0;fill-opacity:1;stroke:none;stroke-width:0.26458335"
       x="51.806644"
       y="269.36783"
       id="text1349-5-1"><tspan
         sodipodi:role="line"
         id="tspan1347-3-2"
         x="51.806644"
         y="269.36783"
         style="font-size:4.23333359px;fill:#c0c0c0;fill-opacity:1;stroke-width:0.26458335">{{p4}}</tspan></text>
    <text
       xml:space="preserve"
       style="font-style:normal;font-weight:normal;font-size:10.58333397px;line-height:1.25;font-family:sans-serif;letter-spacing:0px;word-spacing:0px;fill:#c0c0c0;fill-opacity:1;stroke:none;stroke-width:0.26458335"
       x="7.7298226"
       y="278.72226"
       id="text1349-5-7"><tspan
         sodipodi:role="line"
         id="tspan1347-3-0"
         x="7.7298226"
         y="278.72226"
         style="font-size:4.23333359px;fill:#c0c0c0;fill-opacity:1;stroke-width:0.26458335">{{bat}}</tspan></text>
  </g>
</svg>
